<svg height="1054" width="720" xmlns="http://www.w3.org/2000/svg">
<rect height="1054" fill="#555" width="720"></rect>
<text fill="#7f7" font-family="Courier New" font-size="12" xml:space="preserve">
<tspan x="10" y="26">└─┬ bearcat@0.4.29 </tspan>
<tspan x="10" y="42">  ├─┬ chokidar@1.0.6 </tspan>
<tspan x="10" y="58">  │ ├─┬ anymatch@1.3.0 </tspan>
<tspan x="10" y="74">  │ │ └─┬ micromatch@2.3.11 </tspan>
<tspan x="10" y="90">  │ │   ├─┬ arr-diff@2.0.0 </tspan>
<tspan x="10" y="106">  │ │   │ └── arr-flatten@1.0.1 </tspan>
<tspan x="10" y="122">  │ │   ├── array-unique@0.2.1 </tspan>
<tspan x="10" y="138">  │ │   ├─┬ braces@1.8.5 </tspan>
<tspan x="10" y="154">  │ │   │ ├─┬ expand-range@1.8.2 </tspan>
<tspan x="10" y="170">  │ │   │ │ └─┬ fill-range@2.2.3 </tspan>
<tspan x="10" y="186">  │ │   │ │   ├── is-number@2.1.0 </tspan>
<tspan x="10" y="202">  │ │   │ │   ├─┬ isobject@2.1.0 </tspan>
<tspan x="10" y="218">  │ │   │ │   │ └── isarray@1.0.0 </tspan>
<tspan x="10" y="234">  │ │   │ │   ├── randomatic@1.1.6 </tspan>
<tspan x="10" y="250">  │ │   │ │   └── repeat-string@1.6.1 </tspan>
<tspan x="10" y="266">  │ │   │ ├── preserve@0.2.0 </tspan>
<tspan x="10" y="282">  │ │   │ └── repeat-element@1.1.2 </tspan>
<tspan x="10" y="298">  │ │   ├─┬ expand-brackets@0.1.5 </tspan>
<tspan x="10" y="314">  │ │   │ └── is-posix-bracket@0.1.1 </tspan>
<tspan x="10" y="330">  │ │   ├── extglob@0.3.2 </tspan>
<tspan x="10" y="346">  │ │   ├── filename-regex@2.0.0 </tspan>
<tspan x="10" y="362">  │ │   ├── is-extglob@1.0.0 </tspan>
<tspan x="10" y="378">  │ │   ├── is-glob@2.0.1 </tspan>
<tspan x="10" y="394">  │ │   ├─┬ kind-of@3.1.0 </tspan>
<tspan x="10" y="410">  │ │   │ └── is-buffer@1.1.5 </tspan>
<tspan x="10" y="426">  │ │   ├─┬ normalize-path@2.1.1 </tspan>
<tspan x="10" y="442">  │ │   │ └── remove-trailing-separator@1.0.1 </tspan>
<tspan x="10" y="458">  │ │   ├─┬ object.omit@2.0.1 </tspan>
<tspan x="10" y="474">  │ │   │ ├─┬ for-own@0.1.5 </tspan>
<tspan x="10" y="490">  │ │   │ │ └── for-in@1.0.2 </tspan>
<tspan x="10" y="506">  │ │   │ └── is-extendable@0.1.1 </tspan>
<tspan x="10" y="522">  │ │   ├─┬ parse-glob@3.0.4 </tspan>
<tspan x="10" y="538">  │ │   │ ├─┬ glob-base@0.3.0 </tspan>
<tspan x="10" y="554">  │ │   │ │ ├── glob-parent@2.0.0 </tspan>
<tspan x="10" y="570">  │ │   │ │ └── is-glob@2.0.1 </tspan>
<tspan x="10" y="586">  │ │   │ ├── is-dotfile@1.0.2 </tspan>
<tspan x="10" y="602">  │ │   │ └── is-glob@2.0.1 </tspan>
<tspan x="10" y="618">  │ │   └─┬ regex-cache@0.4.3 </tspan>
<tspan x="10" y="634">  │ │     ├── is-equal-shallow@0.1.3 </tspan>
<tspan x="10" y="650">  │ │     └── is-primitive@2.0.0 </tspan>
<tspan x="10" y="666">  │ ├── arrify@1.0.1 </tspan>
<tspan x="10" y="682">  │ ├── async-each@0.1.6 </tspan>
<tspan x="10" y="698">  │ ├─┬ glob-parent@1.3.0 </tspan>
<tspan x="10" y="714">  │ │ └── is-glob@2.0.1 </tspan>
<tspan x="10" y="730">  │ ├─┬ is-binary-path@1.0.1 </tspan>
<tspan x="10" y="746">  │ │ └── binary-extensions@1.8.0 </tspan>
<tspan x="10" y="762">  │ ├── is-glob@1.1.3 </tspan>
<tspan x="10" y="778">  │ ├── path-is-absolute@1.0.1 </tspan>
<tspan x="10" y="794">  │ └─┬ readdirp@1.4.0 </tspan>
<tspan x="10" y="810">  │   ├── graceful-fs@4.1.11 </tspan>
<tspan x="10" y="826">  │   ├─┬ minimatch@0.2.14 </tspan>
<tspan x="10" y="842">  │   │ ├── lru-cache@2.7.3 </tspan>
<tspan x="10" y="858">  │   │ └── sigmund@1.0.1 </tspan>
<tspan x="10" y="874">  │   └─┬ readable-stream@1.0.34 </tspan>
<tspan x="10" y="890">  │     ├── core-util-is@1.0.2 </tspan>
<tspan x="10" y="906">  │     ├── inherits@2.0.3 </tspan>
<tspan x="10" y="922">  │     ├── isarray@0.0.1 </tspan>
<tspan x="10" y="938">  │     └── string_decoder@0.10.31 </tspan>
<tspan x="10" y="954">  ├─┬ commander@2.9.0 </tspan>
<tspan x="10" y="970">  │ └── graceful-readlink@1.0.1 </tspan>
<tspan x="10" y="986">  └─┬ pomelo-logger@0.1.7 </tspan>
<tspan x="10" y="1002">    └─┬ log4js@0.6.21 </tspan>
<tspan x="10" y="1018">      ├── async@0.2.10 </tspan>
<tspan x="10" y="1034">      └── semver@1.1.4</tspan>
</text>
</svg>
